<svg xmlns="http://www.w3.org/2000/svg" viewBox="0 0 292 100"><defs><style>.cls-1{fill:#fff;}</style></defs><g id="LOGO"><path class="cls-1" d="M50,56v4H83.54a35,35,0,1,1-8.79-34.75L85.36,14.64A50,50,0,1,0,100,50V45H61A11,11,0,0,0,50,56Z"/><path class="cls-1" d="M172.85,46.16A27,27,0,0,0,152,2H110V98h46.5a28.5,28.5,0,0,0,16.35-51.84ZM156.5,83H125V17h27a12,12,0,0,1,0,24h-1a11,11,0,0,0-11,11v4h16.5a13.5,13.5,0,0,1,0,27Z"/><path class="cls-1" d="M253,45a11,11,0,0,0-11,11v4h33.54a35,35,0,1,1-8.79-34.75l10.61-10.61A50,50,0,1,0,292,50V45Z"/></g></svg>