<svg width="292" height="100" viewBox="0 0 292 100" fill="none" xmlns="http://www.w3.org/2000/svg">
<g clip-path="url(#clip0_5339_6558)">
<path d="M50 55.9998V59.9998H83.54C81.35 67.343 76.8107 73.7645 70.6188 78.2788C64.4269 82.793 56.9245 85.1505 49.2634 84.9893C41.6023 84.8281 34.2059 82.1571 28.2093 77.3864C22.2128 72.6156 17.9476 66.0088 16.0685 58.58C14.1894 51.1512 14.8002 43.3109 17.8071 36.2628C20.8141 29.2146 26.051 23.348 32.714 19.5636C39.377 15.7791 47.098 14.2858 54.6916 15.313C62.2852 16.3402 69.3319 19.8311 74.75 25.2498L85.36 14.6399C77.1815 6.45923 66.4195 1.36742 54.9078 0.232C43.396 -0.903422 31.8466 1.98779 22.2275 8.41302C12.6085 14.8383 5.5148 24.4 2.15521 35.469C-1.20439 46.538 -0.622054 58.4295 3.80299 69.1173C8.22804 79.8051 16.222 88.6279 26.4229 94.0826C36.6237 99.5372 48.4003 101.286 59.746 99.0313C71.0918 96.7766 81.3048 90.6576 88.6448 81.717C95.9849 72.7765 99.9978 61.5674 100 49.9998V44.9998H61C58.0826 44.9998 55.2847 46.1587 53.2218 48.2216C51.1589 50.2845 50 53.0824 50 55.9998Z" fill="#0F0F1A"/>
<path d="M172.85 46.16C176.103 42.2083 178.166 37.4134 178.798 32.3342C179.43 27.255 178.605 22.1008 176.42 17.4723C174.235 12.8439 170.779 8.93198 166.455 6.19258C162.132 3.45317 157.118 1.99915 152 2H110V98H156.5C162.56 97.9989 168.461 96.0663 173.348 92.4828C178.235 88.8994 181.852 83.8516 183.675 78.0725C185.498 72.2933 185.431 66.0836 183.484 60.345C181.538 54.6063 177.813 49.6375 172.85 46.16ZM156.5 83H125V17H152C155.183 17 158.235 18.2643 160.485 20.5147C162.736 22.7652 164 25.8174 164 29C164 32.1826 162.736 35.2348 160.485 37.4853C158.235 39.7357 155.183 41 152 41H151C148.083 41 145.285 42.1589 143.222 44.2218C141.159 46.2847 140 49.0826 140 52V56H156.5C160.08 56 163.514 57.4223 166.046 59.9541C168.578 62.4858 170 65.9196 170 69.5C170 73.0804 168.578 76.5142 166.046 79.0459C163.514 81.5777 160.08 83 156.5 83Z" fill="#0F0F1A"/>
<path d="M253 44.9998C250.083 44.9998 247.285 46.1587 245.222 48.2216C243.159 50.2845 242 53.0824 242 55.9998V59.9998H275.54C273.35 67.343 268.811 73.7645 262.619 78.2788C256.427 82.793 248.925 85.1505 241.263 84.9893C233.602 84.8281 226.206 82.1571 220.209 77.3864C214.213 72.6156 209.948 66.0088 208.068 58.58C206.189 51.1512 206.8 43.3109 209.807 36.2628C212.814 29.2146 218.051 23.348 224.714 19.5636C231.377 15.7791 239.098 14.2858 246.692 15.313C254.285 16.3402 261.332 19.8311 266.75 25.2498L277.36 14.6399C269.182 6.45923 258.42 1.36742 246.908 0.232C235.396 -0.903422 223.847 1.98779 214.228 8.41302C204.608 14.8383 197.515 24.4 194.155 35.469C190.796 46.538 191.378 58.4295 195.803 69.1173C200.228 79.8051 208.222 88.6279 218.423 94.0826C228.624 99.5372 240.4 101.286 251.746 99.0313C263.092 96.7766 273.305 90.6576 280.645 81.717C287.985 72.7765 291.998 61.5674 292 49.9998V44.9998H253Z" fill="#0F0F1A"/>
</g>
<defs>
<clipPath id="clip0_5339_6558">
<rect width="292" height="100" fill="white"/>
</clipPath>
</defs>
</svg>
