<svg id="Layer_1" data-name="Layer 1" xmlns="http://www.w3.org/2000/svg" xmlns:xlink="http://www.w3.org/1999/xlink" viewBox="0 0 187.42 59.52"><defs><style>.cls-1,.cls-7{fill:none;}.cls-2{fill:#5f5c5d;}.cls-3{fill:#b4cc10;}.cls-4{clip-path:url(#clip-path);}.cls-5{fill:url(#linear-gradient);}.cls-6{fill:#fafbfc;}.cls-7{stroke:#fafbfc;stroke-width:2.89px;}</style><clipPath id="clip-path"><path class="cls-1" d="M164.87,16.85A11.28,11.28,0,1,0,176.15,5.58a11.28,11.28,0,0,0-11.28,11.27"/></clipPath><linearGradient id="linear-gradient" x1="-192.56" y1="505.43" x2="-191.96" y2="505.43" gradientTransform="matrix(37.52, 0, 0, -37.52, 7390.32, 18982.26)" gradientUnits="userSpaceOnUse"><stop offset="0" stop-color="#b4cc10"/><stop offset="0.43" stop-color="#aec615"/><stop offset="1" stop-color="#9db722"/></linearGradient></defs><path class="cls-2" d="M8,33.71C9,36.5,11.3,37.32,14.14,37.32,19.09,37.32,20,35.57,20,30a9.84,9.84,0,0,1-7.12,2.58A12.83,12.83,0,0,1,0,19.42,12.83,12.83,0,0,1,12.9,6.26a11.29,11.29,0,0,1,7.43,2.37V6.88h7.32V29.53c0,9.44-3.35,14-13.41,14-6.45,0-13-2.73-13.93-9.8Zm5.72-7.84a6.45,6.45,0,0,0,0-12.9,6.45,6.45,0,0,0,0,12.9"/><path class="cls-2" d="M32.1,6.88h7.63v3.77h.1c1.66-3.31,3.87-4.39,7.54-4.39h.93v7.33h-.52c-7.07,0-8.05,2.32-8.05,7.22v12.9H32.1Z"/><path class="cls-2" d="M74.05,24.47c-1,6.66-6.76,9.86-13,9.86-8.51,0-13.67-6-13.67-13.83S52.69,6.26,60.74,6.26c9.6,0,13.83,6.71,13.52,15.58H55.07c0,3.25,2,6.09,5.83,6.09,3.4,0,5.05-1.65,5.47-3.46Zm-7.53-8a5.29,5.29,0,0,0-5.62-4.54,5.29,5.29,0,0,0-5.63,4.54Z"/><path class="cls-2" d="M102.38,24.47c-1,6.66-6.76,9.86-13,9.86-8.51,0-13.67-6-13.67-13.83S81,6.26,89.07,6.26c9.6,0,13.83,6.71,13.52,15.58H83.39c.06,3.25,2,6.09,5.84,6.09,3.4,0,5-1.65,5.46-3.46Zm-7.53-8a5.75,5.75,0,0,0-11.25,0Z"/><path class="cls-2" d="M105.53,6.88h7.64v3.2c2.53-2.53,4.54-3.82,8.2-3.82,5.68,0,9.34,3.77,9.34,9.49v18h-7.63V17.3c0-2.73-1.66-3.71-4.29-3.71-2.89,0-5.62,1.34-5.62,4.69V33.71h-7.64Z"/><rect class="cls-3" x="134.95" width="7.64" height="33.71"/><path class="cls-3" d="M146.67,33.71V0h9.19a37.85,37.85,0,0,1,8.57.76,15.09,15.09,0,0,1,5.5,2.53A14.61,14.61,0,0,1,174.57,9a18.86,18.86,0,0,1,1.58,7.88,18.58,18.58,0,0,1-1.62,8,14.4,14.4,0,0,1-4.72,5.72A14.92,14.92,0,0,1,164.69,33a34.94,34.94,0,0,1-8.25.73h-9.77Zm7.64-6.7h3.77c3.56,0,6.16-.81,7.78-2.43s2.44-4.19,2.44-7.7-.81-6.07-2.44-7.69-4.22-2.45-7.78-2.45h-3.77Z"/><g class="cls-4"><rect class="cls-5" x="164.87" y="5.58" width="22.55" height="22.55"/></g><path class="cls-6" d="M176.15,6.46a10.4,10.4,0,1,0,10.39,10.39A10.39,10.39,0,0,0,176.15,6.46m0,19.12a8.73,8.73,0,1,1,8.72-8.73,8.73,8.73,0,0,1-8.72,8.73"/><polyline class="cls-7" points="170.85 17.06 174.15 20.42 181.45 12.65"/><path class="cls-2" d="M144.24,48.89v.7h5.86A6.11,6.11,0,1,1,146,42a6.27,6.27,0,0,1,2.58,1.53l1.85-1.84a8.73,8.73,0,1,0,0,12.34A8.62,8.62,0,0,0,153,47.84V47h-6.81A1.88,1.88,0,0,0,144.24,48.89Z"/><path class="cls-2" d="M165.73,47.17a4.73,4.73,0,0,0-3.63-7.73h-7.35V56.21h8.11a5,5,0,0,0,2.87-9Zm-2.87,6.43h-5.5V42.05h4.71a2.1,2.1,0,0,1,0,4.2h-.16A1.92,1.92,0,0,0,160,48.16v.7h2.89a2.35,2.35,0,0,1,2.36,2.35A2.4,2.4,0,0,1,162.86,53.6Z"/><path class="cls-2" d="M179.73,47a1.92,1.92,0,0,0-1.91,1.91v.7h5.86A6.11,6.11,0,1,1,179.57,42a6.27,6.27,0,0,1,2.58,1.53L184,41.63A8.73,8.73,0,1,0,184,54a8.62,8.62,0,0,0,2.54-6.17V47Z"/></svg>